<svg width="32" height="32" viewBox="0 0 24 24" fill="none" xmlns="http://www.w3.org/2000/svg">
<path d="M7.68 22.5601C4.2384 22.5601 1.44 19.7617 1.44 16.3201V7.68006C1.44 4.23846 4.2384 1.44006 7.68 1.44006H16.32C19.7616 1.44006 22.56 4.23846 22.56 7.68006V16.3201C22.56 19.7617 19.7616 22.5601 16.32 22.5601H7.68ZM17.76 18.7201C18.288 18.7201 18.72 18.2881 18.72 17.7601C18.72 17.2321 18.288 16.8001 17.76 16.8001C17.232 16.8001 16.8 17.2321 16.8 17.7601C16.8 18.2881 17.232 18.7201 17.76 18.7201ZM12 17.2801C14.9136 17.2801 17.28 14.9137 17.28 12.0001C17.28 9.08646 14.9136 6.72006 12 6.72006C9.0864 6.72006 6.72 9.08646 6.72 12.0001C6.72 14.9137 9.0864 17.2801 12 17.2801ZM12 16.3201C9.6192 16.3201 7.68 14.3809 7.68 12.0001C7.68 9.61926 9.6192 7.68006 12 7.68006C14.3808 7.68006 16.32 9.61926 16.32 12.0001C16.32 14.3809 14.3808 16.3201 12 16.3201Z" fill="white"/>
</svg>
