<?xml version="1.0" encoding="UTF-8"?>
<svg id="Layer_2" data-name="Layer 2" xmlns="http://www.w3.org/2000/svg" viewBox="0 0 188.2 128.39">
  <defs>
    <style>
      .cls-1 {
        fill: #97250a;
        stroke-width: 0px;
      }
    </style>
  </defs>
  <g id="Layer_1-2" data-name="Layer 1">
    <g>
      <path class="cls-1" d="m12.31,43.13c0,8.67.42,15.24,4.35,23.11,1.34,2.65,2.37,4.73,4.02,7.1,2.05,2.94,3.95,4.93,6.58,7.15l4.73,3.76c2.37,1.62,4.55,2.68,7.13,3.99,4.67,2.36,11.27,3.91,18.3,3.91h83.02c14.21,0,13.54-18.98.66-18.97h-57.85c-11.06.01-28.65,1.07-36.48-2.08-8.27-3.33-15.82-13.57-15.82-22.74,0-9.98,1.39-15.21,8.43-22.31,4.35-4.41,11.34-7.11,20.01-7.11h109.49V.01c-.85,0-.64-.01-1.64-.01H58.72c-7.88,0-13.13,1.31-18.69,3.54-4.7,1.89-9.89,5.39-13.75,8.79l-5.15,5.97c-.75,1.07-1.48,2.17-2.23,3.33-.76,1.2-1.24,2.31-1.91,3.65-2.15,4.28-4.68,11.61-4.68,17.86h0Z"/>
      <path class="cls-1" d="m49.35,45.71c0,6.64,4.27,9.85,10.77,9.81h77.47c7.07,0,11.9.08,16.89,2.38,4.19,1.95,7.84,5.33,10.3,8.97,5.52,8.17,6.35,17.98,2.46,27.11-1.9,4.46-4.72,7.72-8.45,10.5-3.67,2.75-9.3,4.95-14.34,4.95H53.27c-8.17,0-17.7-3.3-23.31-6.09-3.12-1.56-6.45-3.57-9.13-5.57-2.69-2.01-5.6-4.97-8.08-6.64L0,104.21c1.1,1.63,3.06,2.89,4.82,4.67,9.76,9.84,32.46,19.51,47.48,19.51h93.47c8.34,0,18.44-4.32,24.46-8.86,3.91-2.96,8.23-7.42,10.9-11.66,11.24-17.97,8.95-42.88-5.86-57.66-1.01-1.01-1.77-1.8-2.78-2.79-6.18-6.13-18.2-10.86-28.03-10.86H57.84c-4.24,0-8.49,4.36-8.49,9.15h0Z"/>
    </g>
  </g>
</svg>