<?xml version="1.0" encoding="UTF-8"?>
<svg id="Layer_2" data-name="Layer 2" xmlns="http://www.w3.org/2000/svg" viewBox="0 0 2790.16 222.46">
  <defs>
    <style>
      .cls-1, .cls-2 {
        stroke-width: 0px;
      }

      .cls-2 {
        fill: #fff;
      }
    </style>
  </defs>
  <g id="Layer_1-2" data-name="Layer 1">
    <g>
      <path class="cls-1" d="m242.39,1.47c44.89-.01,89.79.14,134.68-.2,5.68-.04,6.75,1.61,6.59,6.55-.28,8.67-.54,17.39.06,26.03.54,7.7-1.7,10.3-9.91,10.21-40.87-.43-81.74-.2-122.61-.2-43.89,0-87.78-.09-131.66.05-17.05.05-25.72,7.66-25.85,21.94-.13,14.96,8.77,24.27,23.82,24.32,38.19.12,76.38.04,114.58.05,33.5,0,67.01.26,100.51-.02,39.16-.33,74.83,43.83,55.97,87.07-13.15,30.16-36.98,44.96-70.1,44.93-70.69-.07-141.38-.18-212.07.04-37.89.12-71.03-12.61-100.58-35.54-5.83-4.52-8.72-9.68-1.67-16.13,6.64-6.07,12.8-12.67,19.04-19.16,3-3.12,5.02-2.66,8.18.27,16.33,15.23,35.93,23.98,57.95,27.07,7.81,1.1,15.81,1.05,23.73,1.06,52.93.07,105.87.3,158.8-.16,16.71-.14,33.41-1.14,50.15-.94,10.67.12,19.07-9.6,19.41-21.26.36-12.35-9.06-23.37-21.46-24.86-2.97-.36-6.02-.12-9.04-.12-70.69,0-141.38.02-212.07-.02-23.64-.01-46.3-19.45-53.81-41.87-9.84-29.39,4.31-63.33,28.82-78.14,11.99-7.24,24.84-11.01,38.9-10.99,43.22.08,86.43.03,129.65.02Z"/>
      <path class="cls-1" d="m988.45,1.47c44.21,0,88.42-.17,132.63.07,31.73.17,53.56,15.7,66.4,44.21,3.32,7.37,4.34,15.35,4.35,23.37.07,48.07-.08,96.13.2,144.2.04,7.05-2.09,9.31-9.11,9-11.7-.51-23.45-.42-35.16-.03-6.19.21-8.04-1.96-8.02-8.04.2-46.73-.05-93.46.19-140.19.1-20.19-5.81-27.3-26.22-27.78-21.09-.49-42.2.16-63.3-.26-7.72-.15-7.61,4.03-7.6,9.48.09,51.74-.16,103.48.28,155.21.08,9.12-2.23,12.36-11.62,11.65-10.99-.82-22.1-.43-33.14-.1-5.69.17-7.52-1.84-7.49-7.48.2-50.07-.07-100.14.31-150.21.14-18.43.77-18.42-18.42-18.42-22.44,0-44.88,0-67.32,0q-13.18,0-13.18,12.69c0,51.07-.14,102.14.14,153.21.04,7.49-1.42,10.87-9.84,10.3-11-.75-22.1-.42-33.14-.09-5.64.17-7.54-1.76-7.53-7.44.15-69.1.15-138.19,0-207.29-.01-5.45,1.75-6.26,6.91-6.23,46.55.27,93.11.16,139.66.16Z"/>
      <path class="cls-1" d="m2210.25,222.17c-37.17,0-74.34.09-111.51-.02-38-.11-64.49-26.53-64.51-64.13-.02-28.03-.01-56.07,0-84.1.02-42.8,29.33-72.33,72.22-72.41,67.98-.12,135.97.6,203.94-.27,40.05-.51,73.58,25.3,75.1,68.96,1.15,32.93,2.42,66.03-1.17,98.96-3.16,29.01-29.23,52.65-58.54,52.89-38.51.31-77.02.08-115.53.08v.05Z"/>
      <path class="cls-1" d="m1951.01,133.36c25.38,16.18,32.55,40.31,31.14,68.85-.99,19.92-.19,19.96-20.08,19.96h-8.04c-21.47,0-23.41-1.88-21.17-23.61.91-8.79-.79-17.26-2.15-25.63-2.02-12.37-16.44-20.66-33.88-20.7-40.19-.08-80.38-.31-120.56.19-9.19.11-12.68-2.3-11.55-11.58,1.28-10.47-4.51-24.11,2.39-30.74,6.34-6.09,19.79-1.74,30.09-1.82,33.49-.28,66.98-.23,100.47-.36,19.97-.08,31.56-11.61,31.81-31.52.25-19.83-11.28-32.6-31.04-32.66-65.97-.21-131.95.16-197.93-.04-7.88-.02-8.38,3.63-8.36,9.76.15,52.74-.09,105.47.27,158.21.05,8.2-1.99,11.22-10.54,10.68-11.34-.72-22.77-.38-34.15-.09-5.45.14-7.71-1.41-7.7-7.28.16-69.09.14-138.18,0-207.27-.01-5.16,1.3-6.43,6.74-6.42,84.73.25,169.46.09,254.19.26,19.74.04,38.41,3.41,52.97,18.9,9.29,9.89,14.46,21.58,16.25,34.47,3.33,23.99,4.07,47.88-11.09,69.03-2.3,3.21-5.16,6.03-8.09,9.41Z"/>
      <path class="cls-1" d="m2584.98,1.47c43.54,0,87.09.43,130.62-.12,42.03-.53,73.55,29.17,74.21,72.11.72,46.72.06,93.46.29,140.19.03,6.41-1.66,8.95-8.43,8.65-11.03-.48-22.13-.64-33.14.04-8.29.51-10.78-2.01-10.71-10.47.41-46.73-.26-93.47.45-140.19.24-15.84-8.91-28.29-28.14-28.09-70.33.72-140.67.42-211,.1-8.23-.04-10.77,2-10.71,10.47.39,52.74.02,105.48.38,158.22.06,8.08-2.39,10.36-10.2,9.95-11.69-.61-23.44-.35-35.16-.08-5.28.12-6.95-1.83-6.94-6.99.12-69.1.1-138.19.03-207.29,0-4.83.94-6.81,6.77-6.77,47.22.34,94.45.19,141.67.19v.07Z"/>
      <path class="cls-1" d="m787.86,52.85c0,13.02.14,26.04-.03,39.05-.44,34.65-28.08,61.15-61.99,60.48-25.44-.51-50.92.34-76.36-.32-9.21-.24-11.31,2.8-10.98,11.36.64,16.67-.16,33.38.34,50.06.22,7.35-2.62,9.08-9.34,8.81-11.03-.44-22.12-.53-33.15.03-7.35.37-10.04-1.71-9.78-9.43.56-17.01-.17-34.05.33-51.06.22-7.37-1.82-9.84-9.51-9.71-26.45.44-52.92.22-79.37.12-33.93-.13-61.85-27.84-61.97-61.53-.1-27.04.15-54.08-.14-81.11-.07-6.76,1.84-9.74,9.06-9.46,11.37.44,22.79.47,34.15-.02,6.9-.29,9.33,1.77,9.21,8.93-.4,24.36-.2,48.73-.13,73.1.05,19.1,8.14,27.71,27.23,27.77,64.31.2,128.61.19,192.92,0,19.62-.06,28.62-9.27,28.79-28.8.2-23.36.5-46.74-.18-70.09-.27-9.16,2.75-11.53,11.4-10.95,10.67.72,21.43.4,32.14.09,5.74-.17,7.59,2.04,7.49,7.62-.27,15.02-.09,30.04-.09,45.06-.02,0-.04,0-.06,0Z"/>
      <path class="cls-1" d="m1415.37,1.47c53.92,0,107.84.18,161.76-.19,8.49-.06,11.48,2.51,10.48,10.75-1.22,10.15,4.46,23.14-2.52,29.84-6.44,6.18-19.18,1.83-29.12,1.9-34.16.24-68.33.59-102.48-.2-10.7-.25-12.55,3.23-12.46,12.93.47,51.73.04,103.47.4,155.21.06,8.28-2.15,11.24-10.61,10.62-9.66-.71-19.46-.74-29.11,0-8.77.68-11.38-1.97-11.3-10.99.45-51.4.22-102.8.22-154.21q0-13.27-13.62-13.28c-40.19,0-80.38-.2-120.57.17-8.04.07-11.73-1.7-10.82-10.4,1.1-10.53-4.37-24.66,2.17-30.69,5.61-5.19,19.63-1.44,29.93-1.45,45.88-.04,91.77-.02,137.65-.02Z"/>
      <path class="cls-2" d="m2211.38,43.88c32.47,0,64.94-.06,97.42.03,16.44.04,25.1,8.77,25.15,25.32.1,27.36-.7,54.74.27,82.07.69,19.47-12.15,28.34-27.5,28.43-64.94.37-129.89.37-194.83.01-17.08-.09-27.05-10.79-27.25-27.97-.32-27.02-.33-54.05,0-81.07.22-17.87,9.37-26.68,27.31-26.77,33.14-.17,66.28-.05,99.43-.05Z"/>
    </g>
  </g>
</svg>